<svg xmlns="http://www.w3.org/2000/svg" viewBox="0 0 650 320" font-family="'Courier New', Courier, monospace">

  <!-- Background -->
  <rect width="650" height="320" fill="#0d1117" rx="8"/>

  <!-- Title -->
  <text x="325" y="28" text-anchor="middle" fill="#8b949e" font-size="12">
    WaveShare RP2350-ETH — внутренние соединения RP2350 ↔ CH9120
  </text>

  <!-- RP2350 block -->
  <rect x="20" y="45" width="205" height="235" rx="6" fill="#161b22" stroke="#388bfd" stroke-width="1.5"/>
  <text x="122" y="68"  text-anchor="middle" fill="#388bfd" font-size="14" font-weight="bold">RP2350</text>
  <text x="122" y="83"  text-anchor="middle" fill="#4a6a8a" font-size="10">Cortex-M33 / RISC-V</text>

  <!-- CH9120 block -->
  <rect x="425" y="45" width="205" height="235" rx="6" fill="#161b22" stroke="#da3633" stroke-width="1.5"/>
  <text x="527" y="68"  text-anchor="middle" fill="#da3633" font-size="14" font-weight="bold">CH9120</text>
  <text x="527" y="83"  text-anchor="middle" fill="#7a3030" font-size="10">UART-to-Ethernet</text>

  <!-- ═══ GP20 → RXD  (UART TX, blue, right-pointing) ═══ -->
  <text x="210" y="108" text-anchor="end" fill="#79c0ff" font-size="12" font-weight="bold">GP20</text>
  <text x="210" y="121" text-anchor="end" fill="#4a78a0" font-size="10">UART1 TX</text>
  <circle cx="225" cy="112" r="4" fill="#388bfd"/>
  <line   x1="225" y1="112" x2="401" y2="112" stroke="#388bfd" stroke-width="2"/>
  <polygon points="415,112 401,106 401,118"   fill="#388bfd"/>
  <circle cx="425" cy="112" r="4" fill="#388bfd"/>
  <text x="440" y="108" fill="#79c0ff" font-size="12" font-weight="bold">RXD</text>
  <text x="440" y="121" fill="#4a78a0" font-size="10">Serial input</text>

  <!-- ═══ GP21 ← TXD  (UART RX, blue, left-pointing) ═══ -->
  <text x="210" y="148" text-anchor="end" fill="#79c0ff" font-size="12" font-weight="bold">GP21</text>
  <text x="210" y="161" text-anchor="end" fill="#4a78a0" font-size="10">UART1 RX</text>
  <circle cx="225" cy="152" r="4" fill="#388bfd"/>
  <polygon points="225,152 239,146 239,158"   fill="#388bfd"/>
  <line   x1="239" y1="152" x2="425" y2="152" stroke="#388bfd" stroke-width="2"/>
  <circle cx="425" cy="152" r="4" fill="#388bfd"/>
  <text x="440" y="148" fill="#79c0ff" font-size="12" font-weight="bold">TXD</text>
  <text x="440" y="161" fill="#4a78a0" font-size="10">Serial output</text>

  <!-- ═══ GP17 ← TCPCS  (status, green, left-pointing) ═══ -->
  <text x="210" y="188" text-anchor="end" fill="#56d364" font-size="12" font-weight="bold">GP17</text>
  <text x="210" y="201" text-anchor="end" fill="#2d6e37" font-size="10">INPUT</text>
  <circle cx="225" cy="192" r="4" fill="#3fb950"/>
  <polygon points="225,192 239,186 239,198"   fill="#3fb950"/>
  <line   x1="239" y1="192" x2="425" y2="192" stroke="#3fb950" stroke-width="2"/>
  <circle cx="425" cy="192" r="4" fill="#3fb950"/>
  <text x="440" y="188" fill="#56d364" font-size="12" font-weight="bold">TCPCS</text>
  <text x="440" y="201" fill="#2d6e37" font-size="10">LOW = connected</text>

  <!-- ═══ GP18 → CFG0  (control, orange, right-pointing) ═══ -->
  <text x="210" y="228" text-anchor="end" fill="#ffa657" font-size="12" font-weight="bold">GP18</text>
  <text x="210" y="241" text-anchor="end" fill="#7a4a1e" font-size="10">OUTPUT</text>
  <circle cx="225" cy="232" r="4" fill="#f0883e"/>
  <line   x1="225" y1="232" x2="401" y2="232" stroke="#f0883e" stroke-width="2"/>
  <polygon points="415,232 401,226 401,238"   fill="#f0883e"/>
  <circle cx="425" cy="232" r="4" fill="#f0883e"/>
  <text x="440" y="228" fill="#ffa657" font-size="12" font-weight="bold">CFG0</text>
  <text x="440" y="241" fill="#7a4a1e" font-size="10">LOW = config mode</text>

  <!-- ═══ GP19 → RSTI  (control, orange, right-pointing) ═══ -->
  <text x="210" y="268" text-anchor="end" fill="#ffa657" font-size="12" font-weight="bold">GP19</text>
  <text x="210" y="281" text-anchor="end" fill="#7a4a1e" font-size="10">OUTPUT</text>
  <circle cx="225" cy="272" r="4" fill="#f0883e"/>
  <line   x1="225" y1="272" x2="401" y2="272" stroke="#f0883e" stroke-width="2"/>
  <polygon points="415,272 401,266 401,278"   fill="#f0883e"/>
  <circle cx="425" cy="272" r="4" fill="#f0883e"/>
  <text x="440" y="268" fill="#ffa657" font-size="12" font-weight="bold">RSTI</text>
  <text x="440" y="281" fill="#7a4a1e" font-size="10">LOW = reset</text>

  <!-- Legend -->
  <rect x="20" y="294" width="610" height="22" rx="3" fill="#161b22"/>

  <line   x1="35"  y1="305" x2="55"  y2="305" stroke="#388bfd" stroke-width="2"/>
  <polygon points="65,305 55,300 55,310"  fill="#388bfd"/>
  <text x="70"  y="309" fill="#6e7681" font-size="11">UART данные</text>

  <line   x1="220" y1="305" x2="240" y2="305" stroke="#3fb950" stroke-width="2"/>
  <polygon points="210,305 220,300 220,310" fill="#3fb950"/>
  <text x="245" y="309" fill="#6e7681" font-size="11">TCP статус (вход)</text>

  <line   x1="400" y1="305" x2="420" y2="305" stroke="#f0883e" stroke-width="2"/>
  <polygon points="430,305 420,300 420,310" fill="#f0883e"/>
  <text x="435" y="309" fill="#6e7681" font-size="11">Управление (выход)</text>

</svg>
